#N canvas 16 22 1811 868 12;
#X obj 9 7 cnv 19 230 540 empty empty 1st\,\ 2nd\,\ 15th\,\ 16th 20 12 0 15 #ffe3c6 #202020 0;
#X obj 24 306 *~;
#X obj 45 222 hsl 128 15 0 1 0 1 empty empty volume 5 8 0 14 #f8fc00 #fc0400 #000000 12700 1;
#X obj 54 306 *~;
#X obj 75 241 hsl 128 15 0 1 0 1 empty empty volume 5 8 0 14 #f8fc00 #fc0400 #000000 12700 1;
#N canvas 0 50 450 250 (subpatch) 0;
#X array A1-L 2.78838e+07 float 0;
#X coords 0 1 2.78838e+07 -1 200 140 1 0 0;
#X restore 23 50 graph;
#N canvas 234 234 450 250 (subpatch) 0;
#X array A2-R 2.78838e+07 float 0;
#X coords 0 1 2.78838e+07 -1 200 140 1 0 0;
#X restore 22 397 graph;
#N canvas 563 208 343 375 stereo-1st-2nd-channel 0;
#X obj 38 74 soundfiler;
#X obj 38 8 loadbang;
#X obj 38 108 t b;
#X obj 117 233 bng 19 250 50 0 empty empty empty 0 -10 0 12 #fcfcfc #000000 #000000;
#X obj 159 210 t b;
#X obj 37 334 outlet~;
#X obj 120 333 outlet~;
#X obj 68 174 t b;
#X msg 38 147 set A1-L A2-R;
#X obj 38 263 tabplay~ A1-L A2-R;
#X obj 68 201 delay 1;
#X obj 38 290 snake~ out 2;
#X msg 38 42 read -resize Stereo1Loop-s.wav A1-L A2-R;
#X connect 0 0 2 0;
#X connect 1 0 12 0;
#X connect 2 0 8 0;
#X connect 3 0 9 0;
#X connect 4 0 3 0;
#X connect 7 0 10 0;
#X connect 8 0 7 0;
#X connect 8 0 9 0;
#X connect 9 0 11 0;
#X connect 9 1 4 0;
#X connect 10 0 3 0;
#X connect 11 0 5 0;
#X connect 11 1 6 0;
#X connect 12 0 0 0;
#X restore 23 197 pd stereo-1st-2nd-channel;
#X obj 251 8 cnv 19 1280 540 empty empty middle\ speakers 20 12 0 15 #c6ffc7 #202020 0;
#N canvas 234 234 450 250 (subpatch) 0;
#X array A3-L 1.24988e+07 float 0;
#X coords 0 1 1.24988e+07 -1 200 140 1 0 0;
#X restore 264 50 graph;
#N canvas 234 234 450 250 (subpatch) 0;
#X array A5-L 1.76443e+07 float 0;
#X coords 0 1 1.76443e+07 -1 200 140 1 0 0;
#X restore 475 50 graph;
#N canvas 234 234 450 250 (subpatch) 0;
#X array A7-L 1.66513e+07 float 0;
#X coords 0 1 1.66513e+07 -1 200 140 1 0 0;
#X restore 686 50 graph;
#N canvas 234 234 450 250 (subpatch) 0;
#X array A9-L 1.67409e+07 float 0;
#X coords 0 1 1.67409e+07 -1 200 140 1 0 0;
#X restore 897 50 graph;
#N canvas 234 234 450 250 (subpatch) 0;
#X array A11-L 1.5178e+06 float 0;
#X coords 0 1 1.5178e+06 -1 200 140 1 0 0;
#X restore 1108 50 graph;
#N canvas 234 234 450 250 (subpatch) 0;
#X array A13-L 1.30662e+06 float 0;
#X coords 0 1 1.30662e+06 -1 200 140 1 0 0;
#X restore 1319 50 graph;
#X obj 1542 8 cnv 19 255 540 empty empty panning\ sound 20 12 0 15 #feffc6 #202020 0;
#N canvas 0 50 450 250 (subpatch) 0;
#X array pannSound 617382 float 0;
#X coords 0 1 617381 -1 200 140 1 0 0;
#X restore 1556 49 graph;
#N canvas 234 234 450 250 (subpatch) 0;
#X array A4-R 1.24988e+07 float 0;
#X coords 0 1 1.24988e+07 -1 200 140 1 0 0;
#X restore 264 397 graph;
#N canvas 234 234 450 250 (subpatch) 0;
#X array A6-R 1.76443e+07 float 0;
#X coords 0 1 1.76443e+07 -1 200 140 1 0 0;
#X restore 475 397 graph;
#N canvas 234 234 450 250 (subpatch) 0;
#X array A8-R 1.66513e+07 float 0;
#X coords 0 1 1.66513e+07 -1 200 140 1 0 0;
#X restore 686 398 graph;
#N canvas 234 234 450 250 (subpatch) 0;
#X array A10-R 1.67409e+07 float 0;
#X coords 0 1 1.67409e+07 -1 200 140 1 0 0;
#X restore 897 397 graph;
#N canvas 234 234 450 250 (subpatch) 0;
#X array A12-R 1.5178e+06 float 0;
#X coords 0 1 1.5178e+06 -1 200 140 1 0 0;
#X restore 1108 397 graph;
#N canvas 234 234 450 250 (subpatch) 0;
#X array A14-R 1.30662e+06 float 0;
#X coords 0 1 1.30662e+06 -1 200 140 1 0 0;
#X restore 1319 397 graph;
#X obj 9 559 cnv 19 352 300 empty empty Interaction 20 12 0 15 #8bb9d8 #000000 0;
#X obj 33 334 s~ 1c;
#X obj 77 333 s~ 2c;
#X obj 972 559 cnv 19 390 300 empty empty UV-dbs 20 12 0 15 #c6feff #0f4710 0;
#X obj 1032 738 vu 10 80 empty 1 -1 92 0 12 #404040 #000000 0 0;
#X obj 1049 738 vu 10 80 empty 2 -1 92 0 12 #404040 #000000 0 0;
#X obj 1066 738 vu 10 80 empty 3 -1 92 0 12 #404040 #000000 0 0;
#X obj 1083 738 vu 10 80 empty 4 -1 92 0 12 #404040 #000000 0 0;
#X obj 1100 738 vu 10 80 empty 5 -1 92 0 12 #404040 #000000 0 0;
#X obj 1117 738 vu 10 80 empty 6 -1 92 0 12 #404040 #000000 0 0;
#X obj 1134 738 vu 10 80 empty 7 -1 92 0 12 #404040 #000000 0 0;
#X obj 1151 738 vu 10 80 empty 8 -1 92 0 12 #404040 #000000 0 0;
#X obj 1168 738 vu 10 80 empty 9 -1 92 0 12 #404040 #000000 0 0;
#X obj 1185 738 vu 10 80 empty 10 -1 92 0 12 #404040 #000000 0 0;
#X obj 1202 738 vu 10 80 empty 11 -1 92 0 12 #404040 #000000 0 0;
#X obj 1219 738 vu 10 80 empty 12 -1 92 0 12 #404040 #000000 0 0;
#X obj 1236 738 vu 10 80 empty 13 -1 92 0 12 #404040 #000000 0 0;
#X obj 1253 738 vu 10 80 empty 14 -1 92 0 12 #404040 #000000 0 0;
#X obj 1270 738 vu 10 80 empty 15 -1 92 0 12 #404040 #000000 0 0;
#X obj 1287 738 vu 10 80 empty 16 -1 92 0 12 #404040 #000000 1 0;
#X obj 372 559 cnv 19 590 300 empty empty panning\ happens\ here 20 12 0 15 #e3c6ff #0f4710 0;
#N canvas 526 38 1024 518 panner 0;
#X obj 12 453 *~;
#X obj 29 373 line~;
#X msg 29 304 \$1 10;
#X obj 104 453 *~;
#X obj 165 453 *~;
#X obj 182 373 line~;
#X msg 182 304 \$1 10;
#X obj 257 453 *~;
#X obj 333 453 *~;
#X obj 350 373 line~;
#X msg 350 304 \$1 10;
#X obj 426 453 *~;
#X obj 487 453 *~;
#X obj 504 373 line~;
#X msg 504 304 \$1 10;
#X obj 587 453 *~;
#X obj 648 453 *~;
#X obj 665 373 line~;
#X msg 665 304 \$1 10;
#X obj 755 453 *~;
#X obj 816 453 *~;
#X obj 833 373 line~;
#X msg 833 304 \$1 10;
#X obj 922 453 *~;
#X obj 11 491 outlet~;
#X obj 103 491 outlet~;
#X obj 164 491 outlet~;
#X obj 256 491 outlet~;
#X obj 332 491 outlet~;
#X obj 426 491 outlet~;
#X obj 486 491 outlet~;
#X obj 586 491 outlet~;
#X obj 647 491 outlet~;
#X obj 755 491 outlet~;
#X obj 815 491 outlet~;
#X obj 921 491 outlet~;
#X obj 11 167 r~ 3c;
#X obj 164 167 r~ 5c;
#X obj 332 167 r~ 7c;
#X obj 486 167 r~ 9c;
#X obj 649 167 r~ 11c;
#X obj 817 167 r~ 13c;
#X obj 105 167 r~ 4c;
#X obj 258 167 r~ 6c;
#X obj 425 167 r~ 8c;
#X obj 586 167 r~ 10c;
#X obj 755 167 r~ 12c;
#X obj 922 167 r~ 14c;
#X obj 350 224 - 2;
#X obj 504 224 - 3;
#X obj 665 224 - 4;
#X obj 833 224 - 5;
#X obj 29 259 sin;
#X obj 182 224 - 1;
#X obj 182 277 sin;
#X obj 350 278 sin;
#X obj 504 278 sin;
#X obj 665 278 sin;
#X obj 833 278 sin;
#X obj 833 196 clip 5 6.5;
#X obj 833 251 * 2.094;
#X obj 29 196 clip 0 2.5;
#X obj 29 230 * 1.257;
#X obj 182 196 clip 1 3.5;
#X obj 182 250 * 1.257;
#X obj 350 196 clip 2 4.5;
#X obj 504 196 clip 3 5.5;
#X obj 665 196 clip 4 6.5;
#X obj 504 251 * 1.257;
#X obj 350 251 * 1.257;
#X obj 665 251 * 1.5;
#X obj 507 86 hsl 200 19 0 6 0 0 empty empty empty -2 -10 0 12 #fcfcfc #000000 #000000 0 1;
#X floatatom 504 61 5 0 0 0 - - - 0;
#X obj 504 11 inlet;
#N canvas 52 52 450 300 enoTrigger 0;
#X obj 90 171 s turnEnoOff;
#X obj 165 138 sel 1 0;
#X obj 188 170 s turnEnoOn;
#X obj 165 82 inlet;
#X obj 165 110 > 0.5;
#X connect 1 0 0 0;
#X connect 1 1 2 0;
#X connect 3 0 4 0;
#X connect 4 0 1 0;
#X restore 614 123 pd enoTrigger;
#N canvas 457 79 450 300 lastPartTrigger 0;
#X obj 165 82 inlet;
#X obj 80 170 s turnLastOff;
#X obj 165 110 > 2.5;
#X obj 165 138 sel 0 1;
#X obj 188 170 s turnLastOn;
#X connect 0 0 2 0;
#X connect 2 0 3 0;
#X connect 3 0 1 0;
#X connect 3 1 4 0;
#X restore 716 123 pd lastPartTrigger;
#X floatatom 514 140 5 0 0 0 - - - 0;
#X obj 193 453 s~ vol56;
#X obj 40 453 s~ vol34;
#X obj 361 453 s~ vol78;
#X obj 515 453 s~ vol910;
#X obj 676 453 s~ vol1112;
#X obj 844 453 s~ vol1314;
#X obj 41 421 /~ 1;
#X obj 194 421 /~ 1;
#X obj 361 421 /~ 1;
#X obj 516 421 /~ 1;
#X obj 675 421 /~ 1;
#X obj 845 421 /~ 1;
#X floatatom 320 31 5 625 913 0 - - - 0;
#X obj 504 37 expr ((625 - $f1) * -1) / 48;
#X obj 320 58 expr (913 - $f1) / 48;
#X obj 70 327 line;
#X obj 70 351 s li1;
#X obj 207 327 line;
#X obj 207 351 s li2;
#X obj 368 326 line;
#X obj 368 350 s li3;
#X obj 522 327 line;
#X obj 522 351 s li4;
#X obj 678 327 line;
#X obj 678 351 s li5;
#X obj 851 328 line;
#X obj 851 352 s li6;
#X connect 0 0 24 0;
#X connect 1 0 0 1;
#X connect 1 0 3 1;
#X connect 1 0 83 0;
#X connect 2 0 1 0;
#X connect 2 0 92 0;
#X connect 3 0 25 0;
#X connect 4 0 26 0;
#X connect 5 0 4 1;
#X connect 5 0 7 1;
#X connect 5 0 84 0;
#X connect 6 0 5 0;
#X connect 6 0 94 0;
#X connect 7 0 27 0;
#X connect 8 0 28 0;
#X connect 9 0 8 1;
#X connect 9 0 11 1;
#X connect 9 0 85 0;
#X connect 10 0 9 0;
#X connect 10 0 96 0;
#X connect 11 0 29 0;
#X connect 12 0 30 0;
#X connect 13 0 12 1;
#X connect 13 0 15 1;
#X connect 13 0 86 0;
#X connect 14 0 13 0;
#X connect 14 0 98 0;
#X connect 15 0 31 0;
#X connect 16 0 32 0;
#X connect 17 0 16 1;
#X connect 17 0 19 1;
#X connect 17 0 87 0;
#X connect 18 0 17 0;
#X connect 18 0 100 0;
#X connect 19 0 33 0;
#X connect 20 0 34 0;
#X connect 21 0 20 1;
#X connect 21 0 23 1;
#X connect 21 0 88 0;
#X connect 22 0 21 0;
#X connect 22 0 102 0;
#X connect 23 0 35 0;
#X connect 36 0 0 0;
#X connect 37 0 4 0;
#X connect 38 0 8 0;
#X connect 39 0 12 0;
#X connect 40 0 16 0;
#X connect 41 0 20 0;
#X connect 42 0 3 0;
#X connect 43 0 7 0;
#X connect 44 0 11 0;
#X connect 45 0 15 0;
#X connect 46 0 19 0;
#X connect 47 0 23 0;
#X connect 48 0 69 0;
#X connect 49 0 68 0;
#X connect 50 0 70 0;
#X connect 51 0 60 0;
#X connect 52 0 2 0;
#X connect 53 0 64 0;
#X connect 54 0 6 0;
#X connect 55 0 10 0;
#X connect 56 0 14 0;
#X connect 57 0 18 0;
#X connect 58 0 22 0;
#X connect 59 0 51 0;
#X connect 60 0 58 0;
#X connect 61 0 62 0;
#X connect 62 0 52 0;
#X connect 63 0 53 0;
#X connect 64 0 54 0;
#X connect 65 0 48 0;
#X connect 66 0 49 0;
#X connect 67 0 50 0;
#X connect 68 0 56 0;
#X connect 69 0 55 0;
#X connect 70 0 57 0;
#X connect 71 0 61 0;
#X connect 71 0 63 0;
#X connect 71 0 65 0;
#X connect 71 0 66 0;
#X connect 71 0 67 0;
#X connect 71 0 59 0;
#X connect 71 0 74 0;
#X connect 71 0 76 0;
#X connect 71 0 75 0;
#X connect 72 0 71 0;
#X connect 73 0 90 0;
#X connect 83 0 78 0;
#X connect 84 0 77 0;
#X connect 85 0 79 0;
#X connect 86 0 80 0;
#X connect 87 0 81 0;
#X connect 88 0 82 0;
#X connect 89 0 91 0;
#X connect 90 0 72 0;
#X connect 92 0 93 0;
#X connect 94 0 95 0;
#X connect 96 0 97 0;
#X connect 98 0 99 0;
#X connect 100 0 101 0;
#X connect 102 0 103 0;
#X coords 0 518 1 517 150 20 0;
#X restore 642 675 pd panner;
#X f 32;
#X obj 519 785 cnv 19 370 50 empty empty audio\ out 20 12 0 15 #c58aff #000000 0;
#N canvas 491 389 808 162 sendToUV 0;
#X obj 95 30 inlet~;
#X obj 145 30 inlet~;
#X obj 195 30 inlet~;
#X obj 245 30 inlet~;
#X obj 295 30 inlet~;
#X obj 345 30 inlet~;
#X obj 395 30 inlet~;
#X obj 445 30 inlet~;
#X obj 495 30 inlet~;
#X obj 545 30 inlet~;
#X obj 595 30 inlet~;
#X obj 645 30 inlet~;
#X obj 34 90 s~ 3cUV;
#X obj 94 90 s~ 4cUV;
#X obj 154 90 s~ 5cUV;
#X obj 214 90 s~ 6cUV;
#X obj 274 90 s~ 7cUV;
#X obj 334 90 s~ 8cUV;
#X obj 394 90 s~ 9cUV;
#X obj 454 90 s~ 10cUV;
#X obj 520 90 s~ 11cUV;
#X obj 585 90 s~ 12cUV;
#X obj 651 90 s~ 13cUV;
#X obj 717 90 s~ 14cUV;
#X connect 0 0 12 0;
#X connect 1 0 13 0;
#X connect 2 0 14 0;
#X connect 3 0 15 0;
#X connect 4 0 16 0;
#X connect 5 0 17 0;
#X connect 6 0 18 0;
#X connect 7 0 19 0;
#X connect 8 0 20 0;
#X connect 9 0 21 0;
#X connect 10 0 22 0;
#X connect 11 0 23 0;
#X restore 551 758 pd sendToUV;
#X f 32;
#X obj 638 802 dac~ 3 4 5 6 7 8 9 10 11 12 13 14;
#N canvas 1564 408 334 361 uvTodB 0;
#X obj 7 44 outlet;
#X obj 10 66 outlet;
#N canvas 361 98 383 300 1-c 0;
#X obj 56 149 snapshot~;
#X obj 56 176 rmstodb;
#X obj 24 81 t f b;
#X obj 4 109 - 100;
#X obj 56 203 - 100;
#X obj 73 81 abs~;
#X obj 24 43 env~ 1024;
#X obj 152 61 expr 1000 / $f1;
#X floatatom 152 89 5 0 0 0 - - - 0;
#X obj 74 118 slop~ 0 0 0 0 1e+09;
#X floatatom 152 29 5 0 0 0 - - - 0;
#X text 195 90 hz;
#X text 197 29 peak decay time in ms;
#X obj 5 240 outlet;
#X obj 57 239 outlet;
#X obj 23 7 r~ 1c;
#X connect 0 0 1 0;
#X connect 1 0 4 0;
#X connect 2 0 3 0;
#X connect 2 1 0 0;
#X connect 3 0 13 0;
#X connect 4 0 14 0;
#X connect 5 0 9 0;
#X connect 6 0 2 0;
#X connect 7 0 8 0;
#X connect 8 0 9 3;
#X connect 9 0 0 0;
#X connect 10 0 7 0;
#X connect 15 0 5 0;
#X connect 15 0 6 0;
#X restore 7 20 pd 1-c;
#X obj 13 124 outlet;
#X obj 16 146 outlet;
#N canvas 64 64 383 300 2-c 0;
#X obj 56 149 snapshot~;
#X obj 56 176 rmstodb;
#X obj 24 81 t f b;
#X obj 4 109 - 100;
#X obj 56 203 - 100;
#X obj 73 81 abs~;
#X obj 24 43 env~ 1024;
#X obj 152 61 expr 1000 / $f1;
#X floatatom 152 89 5 0 0 0 - - - 0;
#X obj 74 118 slop~ 0 0 0 0 1e+09;
#X floatatom 152 29 5 0 0 0 - - - 0;
#X text 195 90 hz;
#X text 197 29 peak decay time in ms;
#X obj 5 240 outlet;
#X obj 57 239 outlet;
#X obj 23 7 r~ 2c;
#X connect 0 0 1 0;
#X connect 1 0 4 0;
#X connect 2 0 3 0;
#X connect 2 1 0 0;
#X connect 3 0 13 0;
#X connect 4 0 14 0;
#X connect 5 0 9 0;
#X connect 6 0 2 0;
#X connect 7 0 8 0;
#X connect 8 0 9 3;
#X connect 9 0 0 0;
#X connect 10 0 7 0;
#X connect 15 0 5 0;
#X connect 15 0 6 0;
#X restore 13 100 pd 2-c;
#X obj 20 204 outlet;
#X obj 23 226 outlet;
#X obj 26 284 outlet;
#X obj 29 306 outlet;
#N canvas 844 369 383 300 3-c 0;
#X obj 56 179 snapshot~;
#X obj 56 206 rmstodb;
#X obj 24 111 t f b;
#X obj 4 139 - 100;
#X obj 56 233 - 100;
#X obj 73 111 abs~;
#X obj 24 73 env~ 1024;
#X obj 152 91 expr 1000 / $f1;
#X floatatom 152 119 5 0 0 0 - - - 0;
#X obj 74 148 slop~ 0 0 0 0 1e+09;
#X floatatom 152 59 5 0 0 0 - - - 0;
#X text 195 120 hz;
#X text 197 59 peak decay time in ms;
#X obj 4 270 outlet;
#X obj 57 269 outlet;
#X obj 73 7 r~ 3cUV;
#X obj 16 7 r~ enoL;
#X obj 25 42 +~;
#X connect 0 0 1 0;
#X connect 1 0 4 0;
#X connect 2 0 3 0;
#X connect 2 1 0 0;
#X connect 3 0 13 0;
#X connect 4 0 14 0;
#X connect 5 0 9 0;
#X connect 6 0 2 0;
#X connect 7 0 8 0;
#X connect 8 0 9 3;
#X connect 9 0 0 0;
#X connect 10 0 7 0;
#X connect 15 0 5 0;
#X connect 15 0 17 1;
#X connect 16 0 17 0;
#X connect 17 0 6 0;
#X restore 20 180 pd 3-c;
#N canvas 64 64 383 300 4-c 0;
#X obj 56 169 snapshot~;
#X obj 56 196 rmstodb;
#X obj 24 101 t f b;
#X obj 4 129 - 100;
#X obj 56 223 - 100;
#X obj 73 101 abs~;
#X obj 24 63 env~ 1024;
#X obj 152 81 expr 1000 / $f1;
#X floatatom 152 109 5 0 0 0 - - - 0;
#X obj 74 138 slop~ 0 0 0 0 1e+09;
#X floatatom 152 49 5 0 0 0 - - - 0;
#X text 195 110 hz;
#X text 197 49 peak decay time in ms;
#X obj 4 260 outlet;
#X obj 56 259 outlet;
#X obj 73 7 r~ 4cUV;
#X obj 25 36 +~;
#X obj 10 7 r~ enoR;
#X connect 0 0 1 0;
#X connect 1 0 4 0;
#X connect 2 0 3 0;
#X connect 2 1 0 0;
#X connect 3 0 13 0;
#X connect 4 0 14 0;
#X connect 5 0 9 0;
#X connect 6 0 2 0;
#X connect 7 0 8 0;
#X connect 8 0 9 3;
#X connect 9 0 0 0;
#X connect 10 0 7 0;
#X connect 15 0 5 0;
#X connect 15 0 16 1;
#X connect 16 0 6 0;
#X connect 17 0 16 0;
#X restore 26 260 pd 4-c;
#X obj 77 44 outlet;
#X obj 80 66 outlet;
#X obj 83 124 outlet;
#X obj 86 146 outlet;
#X obj 90 204 outlet;
#X obj 93 226 outlet;
#X obj 96 284 outlet;
#X obj 99 306 outlet;
#N canvas 64 64 383 300 5-c 0;
#X obj 56 169 snapshot~;
#X obj 56 196 rmstodb;
#X obj 24 101 t f b;
#X obj 4 129 - 100;
#X obj 56 223 - 100;
#X obj 73 101 abs~;
#X obj 24 63 env~ 1024;
#X obj 152 81 expr 1000 / $f1;
#X floatatom 152 109 5 0 0 0 - - - 0;
#X obj 74 138 slop~ 0 0 0 0 1e+09;
#X floatatom 152 49 5 0 0 0 - - - 0;
#X text 195 110 hz;
#X text 197 49 peak decay time in ms;
#X obj 4 260 outlet;
#X obj 57 259 outlet;
#X obj 73 7 r~ 5cUV;
#X obj 25 36 +~;
#X obj 10 7 r~ enoL;
#X connect 0 0 1 0;
#X connect 1 0 4 0;
#X connect 2 0 3 0;
#X connect 2 1 0 0;
#X connect 3 0 13 0;
#X connect 4 0 14 0;
#X connect 5 0 9 0;
#X connect 6 0 2 0;
#X connect 7 0 8 0;
#X connect 8 0 9 3;
#X connect 9 0 0 0;
#X connect 10 0 7 0;
#X connect 15 0 5 0;
#X connect 15 0 16 1;
#X connect 16 0 6 0;
#X connect 17 0 16 0;
#X restore 77 20 pd 5-c;
#N canvas 775 98 383 300 6-c 0;
#X obj 56 169 snapshot~;
#X obj 56 196 rmstodb;
#X obj 24 101 t f b;
#X obj 4 129 - 100;
#X obj 56 223 - 100;
#X obj 73 101 abs~;
#X obj 24 63 env~ 1024;
#X obj 152 81 expr 1000 / $f1;
#X floatatom 152 109 5 0 0 0 - - - 0;
#X obj 74 138 slop~ 0 0 0 0 1e+09;
#X floatatom 152 49 5 0 0 0 - - - 0;
#X text 195 110 hz;
#X text 197 49 peak decay time in ms;
#X obj 4 260 outlet;
#X obj 57 259 outlet;
#X obj 73 7 r~ 6cUV;
#X obj 25 36 +~;
#X obj 10 7 r~ enoR;
#X connect 0 0 1 0;
#X connect 1 0 4 0;
#X connect 2 0 3 0;
#X connect 2 1 0 0;
#X connect 3 0 13 0;
#X connect 4 0 14 0;
#X connect 5 0 9 0;
#X connect 6 0 2 0;
#X connect 7 0 8 0;
#X connect 8 0 9 3;
#X connect 9 0 0 0;
#X connect 10 0 7 0;
#X connect 15 0 5 0;
#X connect 15 0 16 1;
#X connect 16 0 6 0;
#X connect 17 0 16 0;
#X restore 83 100 pd 6-c;
#N canvas 64 64 383 300 7-c 0;
#X obj 56 169 snapshot~;
#X obj 56 196 rmstodb;
#X obj 24 101 t f b;
#X obj 4 129 - 100;
#X obj 56 223 - 100;
#X obj 73 101 abs~;
#X obj 24 63 env~ 1024;
#X obj 152 81 expr 1000 / $f1;
#X floatatom 152 109 5 0 0 0 - - - 0;
#X obj 74 138 slop~ 0 0 0 0 1e+09;
#X floatatom 152 49 5 0 0 0 - - - 0;
#X text 195 110 hz;
#X text 197 49 peak decay time in ms;
#X obj 4 260 outlet;
#X obj 57 259 outlet;
#X obj 73 7 r~ 7cUV;
#X obj 25 36 +~;
#X obj 10 7 r~ enoL;
#X connect 0 0 1 0;
#X connect 1 0 4 0;
#X connect 2 0 3 0;
#X connect 2 1 0 0;
#X connect 3 0 13 0;
#X connect 4 0 14 0;
#X connect 5 0 9 0;
#X connect 6 0 2 0;
#X connect 7 0 8 0;
#X connect 8 0 9 3;
#X connect 9 0 0 0;
#X connect 10 0 7 0;
#X connect 15 0 5 0;
#X connect 15 0 16 1;
#X connect 16 0 6 0;
#X connect 17 0 16 0;
#X restore 90 180 pd 7-c;
#N canvas 64 64 383 300 8-c 0;
#X obj 56 169 snapshot~;
#X obj 56 196 rmstodb;
#X obj 24 101 t f b;
#X obj 4 129 - 100;
#X obj 56 223 - 100;
#X obj 73 101 abs~;
#X obj 24 63 env~ 1024;
#X obj 152 81 expr 1000 / $f1;
#X floatatom 152 109 5 0 0 0 - - - 0;
#X obj 74 138 slop~ 0 0 0 0 1e+09;
#X floatatom 152 49 5 0 0 0 - - - 0;
#X text 195 110 hz;
#X text 197 49 peak decay time in ms;
#X obj 4 260 outlet;
#X obj 57 259 outlet;
#X obj 73 7 r~ 8cUV;
#X obj 25 36 +~;
#X obj 10 7 r~ enoR;
#X connect 0 0 1 0;
#X connect 1 0 4 0;
#X connect 2 0 3 0;
#X connect 2 1 0 0;
#X connect 3 0 13 0;
#X connect 4 0 14 0;
#X connect 5 0 9 0;
#X connect 6 0 2 0;
#X connect 7 0 8 0;
#X connect 8 0 9 3;
#X connect 9 0 0 0;
#X connect 10 0 7 0;
#X connect 15 0 5 0;
#X connect 15 0 16 1;
#X connect 16 0 6 0;
#X connect 17 0 16 0;
#X restore 96 260 pd 8-c;
#X obj 147 44 outlet;
#X obj 150 66 outlet;
#X obj 153 124 outlet;
#X obj 156 146 outlet;
#X obj 160 204 outlet;
#X obj 163 226 outlet;
#X obj 166 284 outlet;
#X obj 169 306 outlet;
#X obj 217 44 outlet;
#X obj 220 66 outlet;
#X obj 223 124 outlet;
#X obj 226 146 outlet;
#X obj 230 204 outlet;
#X obj 233 226 outlet;
#X obj 236 284 outlet;
#X obj 239 306 outlet;
#N canvas 64 64 383 300 9-c 0;
#X obj 56 169 snapshot~;
#X obj 56 196 rmstodb;
#X obj 24 101 t f b;
#X obj 4 129 - 100;
#X obj 56 223 - 100;
#X obj 73 101 abs~;
#X obj 24 63 env~ 1024;
#X obj 152 81 expr 1000 / $f1;
#X floatatom 152 109 5 0 0 0 - - - 0;
#X obj 74 138 slop~ 0 0 0 0 1e+09;
#X floatatom 152 49 5 0 0 0 - - - 0;
#X text 195 110 hz;
#X text 197 49 peak decay time in ms;
#X obj 4 260 outlet;
#X obj 57 259 outlet;
#X obj 73 7 r~ 9cUV;
#X obj 25 36 +~;
#X obj 10 7 r~ enoL;
#X connect 0 0 1 0;
#X connect 1 0 4 0;
#X connect 2 0 3 0;
#X connect 2 1 0 0;
#X connect 3 0 13 0;
#X connect 4 0 14 0;
#X connect 5 0 9 0;
#X connect 6 0 2 0;
#X connect 7 0 8 0;
#X connect 8 0 9 3;
#X connect 9 0 0 0;
#X connect 10 0 7 0;
#X connect 15 0 5 0;
#X connect 15 0 16 1;
#X connect 16 0 6 0;
#X connect 17 0 16 0;
#X restore 147 20 pd 9-c;
#N canvas 64 64 383 300 10-c 0;
#X obj 56 169 snapshot~;
#X obj 56 196 rmstodb;
#X obj 24 101 t f b;
#X obj 4 129 - 100;
#X obj 56 223 - 100;
#X obj 73 101 abs~;
#X obj 24 63 env~ 1024;
#X obj 152 81 expr 1000 / $f1;
#X floatatom 152 109 5 0 0 0 - - - 0;
#X obj 74 138 slop~ 0 0 0 0 1e+09;
#X floatatom 152 49 5 0 0 0 - - - 0;
#X text 195 110 hz;
#X text 197 49 peak decay time in ms;
#X obj 4 260 outlet;
#X obj 57 259 outlet;
#X obj 73 7 r~ 10cUV;
#X obj 25 36 +~;
#X obj 10 7 r~ enoR;
#X connect 0 0 1 0;
#X connect 1 0 4 0;
#X connect 2 0 3 0;
#X connect 2 1 0 0;
#X connect 3 0 13 0;
#X connect 4 0 14 0;
#X connect 5 0 9 0;
#X connect 6 0 2 0;
#X connect 7 0 8 0;
#X connect 8 0 9 3;
#X connect 9 0 0 0;
#X connect 10 0 7 0;
#X connect 15 0 5 0;
#X connect 15 0 16 1;
#X connect 16 0 6 0;
#X connect 17 0 16 0;
#X restore 153 100 pd 10-c;
#N canvas 64 64 383 300 11-c 0;
#X obj 56 169 snapshot~;
#X obj 56 196 rmstodb;
#X obj 24 101 t f b;
#X obj 4 129 - 100;
#X obj 56 223 - 100;
#X obj 73 101 abs~;
#X obj 24 63 env~ 1024;
#X obj 152 81 expr 1000 / $f1;
#X floatatom 152 109 5 0 0 0 - - - 0;
#X obj 74 138 slop~ 0 0 0 0 1e+09;
#X floatatom 152 49 5 0 0 0 - - - 0;
#X text 195 110 hz;
#X text 197 49 peak decay time in ms;
#X obj 4 260 outlet;
#X obj 57 259 outlet;
#X obj 83 6 r~ 11cUV;
#X obj 25 36 +~;
#X obj 10 7 r~ enoL;
#X connect 0 0 1 0;
#X connect 1 0 4 0;
#X connect 2 0 3 0;
#X connect 2 1 0 0;
#X connect 3 0 13 0;
#X connect 4 0 14 0;
#X connect 5 0 9 0;
#X connect 6 0 2 0;
#X connect 7 0 8 0;
#X connect 8 0 9 3;
#X connect 9 0 0 0;
#X connect 10 0 7 0;
#X connect 15 0 5 0;
#X connect 15 0 16 1;
#X connect 16 0 6 0;
#X connect 17 0 16 0;
#X restore 160 180 pd 11-c;
#N canvas 64 64 383 300 12-c 0;
#X obj 56 169 snapshot~;
#X obj 56 196 rmstodb;
#X obj 24 101 t f b;
#X obj 4 129 - 100;
#X obj 56 223 - 100;
#X obj 73 101 abs~;
#X obj 24 63 env~ 1024;
#X obj 152 81 expr 1000 / $f1;
#X floatatom 152 109 5 0 0 0 - - - 0;
#X obj 74 138 slop~ 0 0 0 0 1e+09;
#X floatatom 152 49 5 0 0 0 - - - 0;
#X text 195 110 hz;
#X text 197 49 peak decay time in ms;
#X obj 4 260 outlet;
#X obj 57 259 outlet;
#X obj 73 7 r~ 12cUV;
#X obj 25 36 +~;
#X obj 10 7 r~ enoR;
#X connect 0 0 1 0;
#X connect 1 0 4 0;
#X connect 2 0 3 0;
#X connect 2 1 0 0;
#X connect 3 0 13 0;
#X connect 4 0 14 0;
#X connect 5 0 9 0;
#X connect 6 0 2 0;
#X connect 7 0 8 0;
#X connect 8 0 9 3;
#X connect 9 0 0 0;
#X connect 10 0 7 0;
#X connect 15 0 5 0;
#X connect 15 0 16 1;
#X connect 16 0 6 0;
#X connect 17 0 16 0;
#X restore 166 260 pd 12-c;
#N canvas 64 64 383 300 13-c 0;
#X obj 56 169 snapshot~;
#X obj 56 196 rmstodb;
#X obj 24 101 t f b;
#X obj 4 129 - 100;
#X obj 56 223 - 100;
#X obj 73 101 abs~;
#X obj 24 63 env~ 1024;
#X obj 152 81 expr 1000 / $f1;
#X floatatom 152 109 5 0 0 0 - - - 0;
#X obj 74 138 slop~ 0 0 0 0 1e+09;
#X floatatom 152 49 5 0 0 0 - - - 0;
#X text 195 110 hz;
#X text 197 49 peak decay time in ms;
#X obj 4 260 outlet;
#X obj 57 259 outlet;
#X obj 73 7 r~ 13cUV;
#X obj 25 36 +~;
#X obj 10 7 r~ enoL;
#X connect 0 0 1 0;
#X connect 1 0 4 0;
#X connect 2 0 3 0;
#X connect 2 1 0 0;
#X connect 3 0 13 0;
#X connect 4 0 14 0;
#X connect 5 0 9 0;
#X connect 6 0 2 0;
#X connect 7 0 8 0;
#X connect 8 0 9 3;
#X connect 9 0 0 0;
#X connect 10 0 7 0;
#X connect 15 0 5 0;
#X connect 15 0 16 1;
#X connect 16 0 6 0;
#X connect 17 0 16 0;
#X restore 217 20 pd 13-c;
#N canvas 489 75 383 300 14-c 0;
#X obj 56 169 snapshot~;
#X obj 56 196 rmstodb;
#X obj 24 101 t f b;
#X obj 4 129 - 100;
#X obj 56 223 - 100;
#X obj 73 101 abs~;
#X obj 24 63 env~ 1024;
#X obj 152 81 expr 1000 / $f1;
#X floatatom 152 109 5 0 0 0 - - - 0;
#X obj 74 138 slop~ 0 0 0 0 1e+09;
#X floatatom 152 49 5 0 0 0 - - - 0;
#X text 195 110 hz;
#X text 197 49 peak decay time in ms;
#X obj 4 260 outlet;
#X obj 57 259 outlet;
#X obj 73 7 r~ 14cUV;
#X obj 25 36 +~;
#X obj 10 7 r~ enoR;
#X connect 0 0 1 0;
#X connect 1 0 4 0;
#X connect 2 0 3 0;
#X connect 2 1 0 0;
#X connect 3 0 13 0;
#X connect 4 0 14 0;
#X connect 5 0 9 0;
#X connect 6 0 2 0;
#X connect 7 0 8 0;
#X connect 8 0 9 3;
#X connect 9 0 0 0;
#X connect 10 0 7 0;
#X connect 15 0 5 0;
#X connect 15 0 16 1;
#X connect 16 0 6 0;
#X connect 17 0 16 0;
#X restore 223 100 pd 14-c;
#N canvas 64 64 383 300 15-c 0;
#X obj 56 149 snapshot~;
#X obj 56 176 rmstodb;
#X obj 24 81 t f b;
#X obj 4 109 - 100;
#X obj 56 203 - 100;
#X obj 73 81 abs~;
#X obj 24 43 env~ 1024;
#X obj 152 61 expr 1000 / $f1;
#X floatatom 152 89 5 0 0 0 - - - 0;
#X obj 74 118 slop~ 0 0 0 0 1e+09;
#X floatatom 152 29 5 0 0 0 - - - 0;
#X text 195 90 hz;
#X text 197 29 peak decay time in ms;
#X obj 5 240 outlet;
#X obj 57 239 outlet;
#X obj 23 7 r~ 15c;
#X connect 0 0 1 0;
#X connect 1 0 4 0;
#X connect 2 0 3 0;
#X connect 2 1 0 0;
#X connect 3 0 13 0;
#X connect 4 0 14 0;
#X connect 5 0 9 0;
#X connect 6 0 2 0;
#X connect 7 0 8 0;
#X connect 8 0 9 3;
#X connect 9 0 0 0;
#X connect 10 0 7 0;
#X connect 15 0 5 0;
#X connect 15 0 6 0;
#X restore 230 180 pd 15-c;
#N canvas 64 64 383 300 16-c 0;
#X obj 56 149 snapshot~;
#X obj 56 176 rmstodb;
#X obj 24 81 t f b;
#X obj 4 109 - 100;
#X obj 56 203 - 100;
#X obj 73 81 abs~;
#X obj 24 43 env~ 1024;
#X obj 152 61 expr 1000 / $f1;
#X floatatom 152 89 5 0 0 0 - - - 0;
#X obj 74 118 slop~ 0 0 0 0 1e+09;
#X floatatom 152 29 5 0 0 0 - - - 0;
#X text 195 90 hz;
#X text 197 29 peak decay time in ms;
#X obj 5 240 outlet;
#X obj 57 239 outlet;
#X obj 23 7 r~ 16c;
#X connect 0 0 1 0;
#X connect 1 0 4 0;
#X connect 2 0 3 0;
#X connect 2 1 0 0;
#X connect 3 0 13 0;
#X connect 4 0 14 0;
#X connect 5 0 9 0;
#X connect 6 0 2 0;
#X connect 7 0 8 0;
#X connect 8 0 9 3;
#X connect 9 0 0 0;
#X connect 10 0 7 0;
#X connect 15 0 5 0;
#X connect 15 0 6 0;
#X restore 236 260 pd 16-c;
#X connect 2 0 0 0;
#X connect 2 1 1 0;
#X connect 5 0 3 0;
#X connect 5 1 4 0;
#X connect 10 0 6 0;
#X connect 11 0 8 0;
#X connect 11 1 9 0;
#X connect 20 0 12 0;
#X connect 20 1 13 0;
#X connect 21 0 14 0;
#X connect 21 1 15 0;
#X connect 22 0 16 0;
#X connect 22 1 17 0;
#X connect 23 0 18 0;
#X connect 23 1 19 0;
#X connect 40 0 24 0;
#X connect 40 1 25 0;
#X connect 41 0 26 0;
#X connect 41 1 27 0;
#X connect 42 0 28 0;
#X connect 42 1 29 0;
#X connect 43 0 30 0;
#X connect 43 1 31 0;
#X connect 44 0 32 0;
#X connect 44 1 33 0;
#X connect 45 0 34 0;
#X connect 45 1 35 0;
#X connect 46 0 36 0;
#X connect 46 1 37 0;
#X connect 47 0 38 0;
#X connect 47 1 39 0;
#X restore 986 616 pd uvTodB;
#X f 51;
#N canvas 825 188 291 301 plastic-bottle-magic 0;
#X msg 14 21 devices;
#X msg 25 51 close;
#X msg 81 52 open \$1;
#X obj 14 124 serial_print;
#X obj 14 153 list prepend;
#X obj 14 177 list trim;
#X obj 14 203 t a a, f 14;
#X obj 31 235 print OUTPUT;
#X obj 14 92 comport 1 9600;
#X obj 14 264 outlet;
#X obj 81 22 inlet;
#X connect 0 0 8 0;
#X connect 1 0 8 0;
#X connect 2 0 8 0;
#X connect 3 0 4 0;
#X connect 3 1 4 1;
#X connect 4 0 5 0;
#X connect 5 0 6 0;
#X connect 6 0 7 0;
#X connect 6 0 9 0;
#X connect 8 0 3 0;
#X connect 10 0 2 0;
#X restore 90 656 pd plastic-bottle-magic;
#X floatatom 90 720 5 0 0 0 - - - 0;
#X obj 90 689 route rot lat lon;
#X floatatom 128 744 7 0 0 0 - - - 0;
#X floatatom 167 769 6 0 0 0 - - - 0;
#X floatatom 90 620 5 0 0 0 - - - 0;
#X text 136 621 PORT NUMBER;
#X obj 265 305 *~;
#X obj 286 225 hsl 128 15 0 1 0 1 empty empty volume 5 8 0 14 #f8fc00 #fc0400 #000000 12700 1;
#X obj 318 330 *~;
#X obj 339 247 hsl 128 15 0 1 0 1 empty empty volume 5 8 0 14 #f8fc00 #fc0400 #000000 12700 1;
#N canvas 886 273 361 375 stereo-3st-4nd-channel 0;
#X obj 38 74 soundfiler;
#X obj 38 8 loadbang;
#X obj 38 108 t b;
#X obj 117 233 bng 19 250 50 0 empty empty empty 0 -10 0 12 #fcfcfc #000000 #000000;
#X obj 159 210 t b;
#X obj 37 334 outlet~;
#X obj 120 333 outlet~;
#X obj 68 174 t b;
#X obj 68 201 delay 1;
#X obj 38 290 snake~ out 2;
#X msg 38 147 set A3-L A4-R;
#X obj 38 263 tabplay~ A3-L A4-R;
#X msg 38 42 read -resize Stereo2LoopCh3-4.wav A3-L A4-R;
#X connect 0 0 2 0;
#X connect 1 0 12 0;
#X connect 2 0 10 0;
#X connect 3 0 11 0;
#X connect 4 0 3 0;
#X connect 7 0 8 0;
#X connect 8 0 3 0;
#X connect 9 0 5 0;
#X connect 9 1 6 0;
#X connect 10 0 7 0;
#X connect 10 0 11 0;
#X connect 11 0 9 0;
#X connect 11 1 4 0;
#X connect 12 0 0 0;
#X restore 264 200 pd stereo-3st-4nd-channel;
#X obj 274 330 s~ 3c;
#X obj 334 356 s~ 4c;
#X obj 475 305 *~;
#X obj 496 225 hsl 128 15 0 1 0 1 empty empty volume 5 8 0 14 #f8fc00 #fc0400 #000000 12700 1;
#X obj 529 330 *~;
#X obj 550 247 hsl 128 15 0 1 0 1 empty empty volume 5 8 0 14 #f8fc00 #fc0400 #000000 12700 1;
#N canvas 886 273 361 375 stereo-5st-6nd-channel 0;
#X obj 38 74 soundfiler;
#X obj 38 8 loadbang;
#X obj 38 108 t b;
#X obj 117 233 bng 19 250 50 0 empty empty empty 0 -10 0 12 #fcfcfc #000000 #000000;
#X obj 159 210 t b;
#X obj 37 334 outlet~;
#X obj 120 333 outlet~;
#X obj 68 174 t b;
#X obj 68 201 delay 1;
#X obj 38 290 snake~ out 2;
#X msg 38 147 set A5-L A6-R;
#X obj 38 263 tabplay~ A5-L A6-R;
#X msg 38 42 read -resize Stereo3LoopCh5-6.wav A5-L A6-R;
#X connect 0 0 2 0;
#X connect 1 0 12 0;
#X connect 2 0 10 0;
#X connect 3 0 11 0;
#X connect 4 0 3 0;
#X connect 7 0 8 0;
#X connect 8 0 3 0;
#X connect 9 0 5 0;
#X connect 9 1 6 0;
#X connect 10 0 7 0;
#X connect 10 0 11 0;
#X connect 11 0 9 0;
#X connect 11 1 4 0;
#X connect 12 0 0 0;
#X restore 475 200 pd stereo-5st-6nd-channel;
#X obj 485 330 s~ 5c;
#X obj 545 356 s~ 6c;
#X obj 475 356 dac~ 5 6;
#X obj 686 306 *~;
#X obj 707 225 hsl 128 15 0 1 0 1 empty empty volume 5 8 0 14 #f8fc00 #fc0400 #000000 12700 1;
#X obj 740 330 *~;
#X obj 761 247 hsl 128 15 0 1 0 1 empty empty volume 5 8 0 14 #f8fc00 #fc0400 #000000 12700 1;
#N canvas 886 273 374 375 stereo-7st-8nd-channel 0;
#X obj 38 74 soundfiler;
#X obj 38 8 loadbang;
#X obj 38 108 t b;
#X obj 117 233 bng 19 250 50 0 empty empty empty 0 -10 0 12 #fcfcfc #000000 #000000;
#X obj 159 210 t b;
#X obj 37 334 outlet~;
#X obj 120 333 outlet~;
#X obj 68 174 t b;
#X obj 68 201 delay 1;
#X obj 38 290 snake~ out 2;
#X msg 38 147 set A7-L A8-R;
#X obj 38 263 tabplay~ A7-L A8-R;
#X msg 38 42 read -resize Stereo4LoopCh7-8.wav A7-L A8-R;
#X connect 0 0 2 0;
#X connect 1 0 12 0;
#X connect 2 0 10 0;
#X connect 3 0 11 0;
#X connect 4 0 3 0;
#X connect 7 0 8 0;
#X connect 8 0 3 0;
#X connect 9 0 5 0;
#X connect 9 1 6 0;
#X connect 10 0 7 0;
#X connect 10 0 11 0;
#X connect 11 0 9 0;
#X connect 11 1 4 0;
#X connect 12 0 0 0;
#X restore 686 199 pd stereo-7st-8nd-channel;
#X obj 696 330 s~ 7c;
#X obj 756 356 s~ 8c;
#X obj 686 356 dac~ 7 8;
#X obj 897 309 *~;
#X obj 918 225 hsl 128 15 0 1 0 1 empty empty volume 5 8 0 14 #f8fc00 #fc0400 #000000 12700 1;
#X obj 957 330 *~;
#X obj 968 247 hsl 128 15 0 1 0 1 empty empty volume 5 8 0 14 #f8fc00 #fc0400 #000000 12700 1;
#N canvas 886 273 431 375 stereo-9st-10nd-channel 0;
#X obj 38 74 soundfiler;
#X obj 38 8 loadbang;
#X obj 38 108 t b;
#X obj 117 233 bng 19 250 50 0 empty empty empty 0 -10 0 12 #fcfcfc #000000 #000000;
#X obj 159 210 t b;
#X obj 37 334 outlet~;
#X obj 120 333 outlet~;
#X obj 68 174 t b;
#X obj 68 201 delay 1;
#X obj 38 290 snake~ out 2;
#X msg 38 147 set A9-L A10-R;
#X obj 38 263 tabplay~ A9-L A10-R;
#X msg 38 42 read -resize Stereo5LoopCh9-10.wav A9-L A10-R;
#X connect 0 0 2 0;
#X connect 1 0 12 0;
#X connect 2 0 10 0;
#X connect 3 0 11 0;
#X connect 4 0 3 0;
#X connect 7 0 8 0;
#X connect 8 0 3 0;
#X connect 9 0 5 0;
#X connect 9 1 6 0;
#X connect 10 0 7 0;
#X connect 10 0 11 0;
#X connect 11 0 9 0;
#X connect 11 1 4 0;
#X connect 12 0 0 0;
#X restore 897 199 pd stereo-9st-10nd-channel;
#X obj 907 333 s~ 9c;
#X obj 973 356 s~ 10c;
#X obj 897 356 dac~ 9 10;
#X obj 1108 308 *~;
#X obj 1129 223 hsl 128 15 0 1 0 1 empty empty volume 5 8 0 14 #f8fc00 #fc0400 #000000 12700 1;
#X obj 1175 326 *~;
#X obj 1186 245 hsl 128 15 0 1 0 1 empty empty volume 5 8 0 14 #f8fc00 #fc0400 #000000 12700 1;
#N canvas 886 273 399 375 stereo-11st-12nd-channel 0;
#X obj 38 74 soundfiler;
#X obj 38 8 loadbang;
#X obj 38 108 t b;
#X obj 117 233 bng 19 250 50 0 empty empty empty 0 -10 0 12 #fcfcfc #000000 #000000;
#X obj 159 210 t b;
#X obj 37 334 outlet~;
#X obj 120 333 outlet~;
#X obj 68 174 t b;
#X obj 68 201 delay 1;
#X obj 38 290 snake~ out 2;
#X msg 38 147 set A11-L A12-R;
#X obj 38 263 tabplay~ A11-L A12-R;
#X msg 38 42 read -resize Stereo6LoopCh11-12.wav A11-L A12-R;
#X connect 0 0 2 0;
#X connect 1 0 12 0;
#X connect 2 0 10 0;
#X connect 3 0 11 0;
#X connect 4 0 3 0;
#X connect 7 0 8 0;
#X connect 8 0 3 0;
#X connect 9 0 5 0;
#X connect 9 1 6 0;
#X connect 10 0 7 0;
#X connect 10 0 11 0;
#X connect 11 0 9 0;
#X connect 11 1 4 0;
#X connect 12 0 0 0;
#X restore 1108 197 pd stereo-11st-12nd-channel;
#X obj 1118 334 s~ 11c;
#X obj 1191 357 s~ 12c;
#X obj 1108 357 dac~ 11 12;
#X obj 1319 311 *~;
#X obj 1340 223 hsl 128 15 0 1 0 1 empty empty volume 5 8 0 14 #f8fc00 #fc0400 #000000 12700 1;
#X obj 1385 331 *~;
#X obj 1397 245 hsl 128 15 0 1 0 1 empty empty volume 5 8 0 14 #f8fc00 #fc0400 #000000 12700 1;
#N canvas 886 273 443 375 stereo-13st-14nd-channel 0;
#X obj 38 74 soundfiler;
#X obj 38 8 loadbang;
#X obj 38 108 t b;
#X obj 117 233 bng 19 250 50 0 empty empty empty 0 -10 0 12 #fcfcfc #000000 #000000;
#X obj 159 210 t b;
#X obj 37 334 outlet~;
#X obj 120 333 outlet~;
#X obj 68 174 t b;
#X obj 68 201 delay 1;
#X obj 38 290 snake~ out 2;
#X msg 38 144 set A13-L A14-R;
#X obj 38 263 tabplay~ A13-L A14-R;
#X msg 38 42 read -resize Stereo7LoopCh13-14.wav A13-L A14-R;
#X connect 0 0 2 0;
#X connect 1 0 12 0;
#X connect 2 0 10 0;
#X connect 3 0 11 0;
#X connect 4 0 3 0;
#X connect 7 0 8 0;
#X connect 8 0 3 0;
#X connect 9 0 5 0;
#X connect 9 1 6 0;
#X connect 10 0 7 0;
#X connect 10 0 11 0;
#X connect 11 0 9 0;
#X connect 11 1 4 0;
#X connect 12 0 0 0;
#X restore 1319 197 pd stereo-13st-14nd-channel;
#X obj 1329 334 s~ 13c;
#X obj 1401 357 s~ 14c;
#X obj 1319 357 dac~ 13 14;
#X obj 1373 559 cnv 19 400 300 empty empty send\ midi 20 12 0 15 #e1e6f7 #0f4710 0;
#N canvas 8 8 1161 790 vienasSkanasLokacija 0;
#X obj 110 108 hsl 500 19 -180 180 0 0 empty empty empty -2 -10 0 12 #fcfcfc #000000 #000000 0 1;
#X floatatom 44 205 5 0 0 0 - - - 0;
#X floatatom 111 229 5 0 0 0 - - - 0;
#X floatatom 172 253 5 0 0 0 - - - 0;
#X floatatom 238 277 5 0 0 0 - - - 0;
#X floatatom 298 301 5 0 0 0 - - - 0;
#X floatatom 360 326 5 0 0 0 - - - 0;
#X floatatom 417 350 5 0 0 0 - - - 0;
#X floatatom 477 375 5 0 0 0 - - - 0;
#X floatatom 637 211 5 0 0 0 - - - 0;
#X floatatom 684 239 5 0 0 0 - - - 0;
#X floatatom 732 266 5 0 0 0 - - - 0;
#X floatatom 792 290 5 0 0 0 - - - 0;
#X floatatom 851 315 5 0 0 0 - - - 0;
#X floatatom 909 339 5 0 0 0 - - - 0;
#X msg 50 618 0 1000;
#X msg 171 618 0 1000;
#X obj 171 594 t b;
#X msg 241 618 0 1000;
#X obj 241 594 t b;
#X msg 311 618 0 1000;
#X obj 311 594 t b;
#X msg 381 618 0 1000;
#X obj 381 594 t b;
#X msg 451 618 0 1000;
#X obj 451 594 t b;
#X msg 521 618 0 1000;
#X obj 521 594 t b;
#X msg 591 618 0 1000;
#X obj 591 594 t b;
#X msg 660 618 0 1000;
#X obj 660 594 t b;
#X msg 730 618 0 1000;
#X obj 730 594 t b;
#X msg 800 618 0 1000;
#X obj 800 594 t b;
#X msg 870 618 0 1000;
#X obj 870 594 t b;
#X msg 940 618 0 1000;
#X obj 940 594 t b;
#X msg 1059 618 0 1000;
#X obj 1059 594 t b;
#X obj 107 6 inlet;
#X obj 39 674 outlet~;
#X obj 160 674 outlet~;
#X obj 230 674 outlet~;
#X obj 300 674 outlet~;
#X obj 370 674 outlet~;
#X obj 440 674 outlet~;
#X obj 510 674 outlet~;
#X obj 580 674 outlet~;
#X obj 650 674 outlet~;
#X obj 720 674 outlet~;
#X obj 790 674 outlet~;
#X obj 860 674 outlet~;
#X obj 931 674 outlet~;
#X obj 1049 674 outlet~;
#X obj 107 131 moses -154;
#X obj 174 155 moses -128;
#X obj 241 180 moses -102;
#X obj 308 204 moses -76;
#X obj 368 229 moses -50;
#X obj 428 253 moses -24;
#X obj 488 277 moses -1;
#X obj 548 301 moses 24;
#X obj 703 135 moses 49;
#X obj 756 159 moses 74;
#X obj 809 183 moses 99;
#X obj 862 207 moses 124;
#X obj 915 232 moses 149;
#X obj 975 256 moses 174;
#X obj 684 215 expr (49 - $f1) / -25.8;
#X obj 732 242 expr (74 - $f1) / -25.8;
#X obj 792 266 expr (99 - $f1) / -25.8;
#X obj 851 291 expr (124 - $f1) / -25.8;
#X obj 909 315 expr (149 - $f1) / -25.8;
#X obj 50 594 t b;
#X obj 44 181 expr (-180 - $f1) / -25.95;
#X obj 111 205 expr (-154 - $f1) / -25.95;
#X obj 173 229 expr (-128 - $f1) / -25.95;
#X obj 238 253 expr (-102 - $f1) / -25.9;
#X obj 298 277 expr (-76 - $f1) / -25.85;
#X obj 360 302 expr (-50 - $f1) / -25.82;
#X obj 417 326 expr (-24 - $f1) / - 22.9;
#X obj 477 351 expr (-1 - $f1) / -24.5;
#X obj 637 187 expr (24 - $f1) / -24.8;
#X obj 40 645 line~;
#X obj 161 645 line~;
#X obj 231 645 line~;
#X obj 301 645 line~;
#X obj 371 645 line~;
#X obj 441 645 line~;
#X obj 511 645 line~;
#X obj 581 645 line~;
#X obj 650 645 line~;
#X obj 720 645 line~;
#X obj 790 645 line~;
#X obj 860 645 line~;
#X obj 930 645 line~;
#X obj 1049 645 line~;
#X msg 161 441 \$1 100;
#X msg 231 441 \$1 100;
#X msg 301 441 \$1 100;
#X msg 371 441 \$1 100;
#X msg 441 441 \$1 100;
#X msg 511 441 \$1 100;
#X msg 581 441 \$1 100;
#X msg 650 441 \$1 100;
#X msg 720 441 \$1 100;
#X msg 790 441 \$1 100;
#X msg 860 441 \$1 100;
#X msg 930 441 \$1 100;
#X msg 1049 441 \$1 100;
#X msg 40 441 \$1 100;
#X obj 173 702 s~ vol3;
#X obj 242 702 s~ vol4;
#X obj 312 702 s~ vol5;
#X obj 382 702 s~ vol6;
#X obj 452 702 s~ vol7;
#X obj 522 702 s~ vol8;
#X obj 592 702 s~ vol9;
#X obj 662 702 s~ vol10;
#X obj 732 702 s~ vol11;
#X obj 802 702 s~ vol12;
#X obj 872 702 s~ vol13;
#X obj 942 702 s~ vol14;
#X obj 107 31 expr $f1 - 180;
#X obj 107 82 line;
#X msg 107 57 \$1 100;
#X connect 0 0 57 0;
#X connect 1 0 113 0;
#X connect 2 0 100 0;
#X connect 3 0 102 0;
#X connect 4 0 104 0;
#X connect 5 0 106 0;
#X connect 6 0 108 0;
#X connect 7 0 110 0;
#X connect 8 0 111 0;
#X connect 9 0 109 0;
#X connect 10 0 107 0;
#X connect 11 0 105 0;
#X connect 12 0 103 0;
#X connect 13 0 101 0;
#X connect 14 0 112 0;
#X connect 15 0 86 0;
#X connect 16 0 87 0;
#X connect 17 0 16 0;
#X connect 18 0 88 0;
#X connect 19 0 18 0;
#X connect 20 0 89 0;
#X connect 21 0 20 0;
#X connect 22 0 90 0;
#X connect 23 0 22 0;
#X connect 24 0 91 0;
#X connect 25 0 24 0;
#X connect 26 0 92 0;
#X connect 27 0 26 0;
#X connect 28 0 93 0;
#X connect 29 0 28 0;
#X connect 30 0 94 0;
#X connect 31 0 30 0;
#X connect 32 0 95 0;
#X connect 33 0 32 0;
#X connect 34 0 96 0;
#X connect 35 0 34 0;
#X connect 36 0 97 0;
#X connect 37 0 36 0;
#X connect 38 0 98 0;
#X connect 39 0 38 0;
#X connect 40 0 99 0;
#X connect 41 0 40 0;
#X connect 42 0 126 0;
#X connect 57 0 77 0;
#X connect 57 1 58 0;
#X connect 58 0 78 0;
#X connect 58 1 59 0;
#X connect 59 0 79 0;
#X connect 59 1 60 0;
#X connect 60 0 80 0;
#X connect 60 1 61 0;
#X connect 61 0 81 0;
#X connect 61 1 62 0;
#X connect 62 0 82 0;
#X connect 62 1 63 0;
#X connect 63 0 83 0;
#X connect 63 1 64 0;
#X connect 64 0 84 0;
#X connect 64 1 65 0;
#X connect 65 0 85 0;
#X connect 65 1 66 0;
#X connect 66 0 71 0;
#X connect 66 1 67 0;
#X connect 67 0 72 0;
#X connect 67 1 68 0;
#X connect 68 0 73 0;
#X connect 68 1 69 0;
#X connect 69 0 74 0;
#X connect 69 1 70 0;
#X connect 70 0 75 0;
#X connect 71 0 10 0;
#X connect 72 0 11 0;
#X connect 73 0 12 0;
#X connect 74 0 13 0;
#X connect 75 0 14 0;
#X connect 76 0 15 0;
#X connect 77 0 1 0;
#X connect 78 0 2 0;
#X connect 79 0 3 0;
#X connect 80 0 4 0;
#X connect 81 0 5 0;
#X connect 82 0 6 0;
#X connect 83 0 7 0;
#X connect 84 0 8 0;
#X connect 85 0 9 0;
#X connect 86 0 43 0;
#X connect 87 0 44 0;
#X connect 87 0 114 0;
#X connect 88 0 45 0;
#X connect 88 0 115 0;
#X connect 89 0 46 0;
#X connect 89 0 116 0;
#X connect 90 0 47 0;
#X connect 90 0 117 0;
#X connect 91 0 48 0;
#X connect 91 0 118 0;
#X connect 92 0 49 0;
#X connect 92 0 119 0;
#X connect 93 0 50 0;
#X connect 93 0 120 0;
#X connect 94 0 51 0;
#X connect 94 0 121 0;
#X connect 95 0 52 0;
#X connect 95 0 122 0;
#X connect 96 0 53 0;
#X connect 96 0 123 0;
#X connect 97 0 54 0;
#X connect 97 0 124 0;
#X connect 98 0 55 0;
#X connect 98 0 125 0;
#X connect 99 0 56 0;
#X connect 100 0 19 0;
#X connect 100 0 87 0;
#X connect 100 0 76 0;
#X connect 100 0 21 0;
#X connect 100 0 23 0;
#X connect 100 0 25 0;
#X connect 100 0 27 0;
#X connect 100 0 29 0;
#X connect 100 0 31 0;
#X connect 100 0 33 0;
#X connect 100 0 35 0;
#X connect 100 0 37 0;
#X connect 100 0 39 0;
#X connect 100 0 41 0;
#X connect 101 0 17 0;
#X connect 101 0 88 0;
#X connect 101 0 76 0;
#X connect 101 0 21 0;
#X connect 101 0 23 0;
#X connect 101 0 25 0;
#X connect 101 0 27 0;
#X connect 101 0 29 0;
#X connect 101 0 31 0;
#X connect 101 0 33 0;
#X connect 101 0 35 0;
#X connect 101 0 37 0;
#X connect 101 0 39 0;
#X connect 101 0 41 0;
#X connect 102 0 23 0;
#X connect 102 0 89 0;
#X connect 102 0 76 0;
#X connect 102 0 17 0;
#X connect 102 0 19 0;
#X connect 102 0 25 0;
#X connect 102 0 27 0;
#X connect 102 0 29 0;
#X connect 102 0 31 0;
#X connect 102 0 33 0;
#X connect 102 0 35 0;
#X connect 102 0 37 0;
#X connect 102 0 39 0;
#X connect 102 0 41 0;
#X connect 103 0 21 0;
#X connect 103 0 90 0;
#X connect 103 0 76 0;
#X connect 103 0 17 0;
#X connect 103 0 19 0;
#X connect 103 0 25 0;
#X connect 103 0 27 0;
#X connect 103 0 29 0;
#X connect 103 0 31 0;
#X connect 103 0 33 0;
#X connect 103 0 35 0;
#X connect 103 0 37 0;
#X connect 103 0 39 0;
#X connect 103 0 41 0;
#X connect 104 0 27 0;
#X connect 104 0 91 0;
#X connect 104 0 76 0;
#X connect 104 0 17 0;
#X connect 104 0 19 0;
#X connect 104 0 21 0;
#X connect 104 0 29 0;
#X connect 104 0 31 0;
#X connect 104 0 33 0;
#X connect 104 0 35 0;
#X connect 104 0 37 0;
#X connect 104 0 39 0;
#X connect 104 0 41 0;
#X connect 105 0 25 0;
#X connect 105 0 92 0;
#X connect 105 0 76 0;
#X connect 105 0 17 0;
#X connect 105 0 19 0;
#X connect 105 0 21 0;
#X connect 105 0 23 0;
#X connect 105 0 29 0;
#X connect 105 0 31 0;
#X connect 105 0 33 0;
#X connect 105 0 35 0;
#X connect 105 0 37 0;
#X connect 105 0 39 0;
#X connect 105 0 41 0;
#X connect 106 0 31 0;
#X connect 106 0 93 0;
#X connect 106 0 76 0;
#X connect 106 0 17 0;
#X connect 106 0 19 0;
#X connect 106 0 21 0;
#X connect 106 0 23 0;
#X connect 106 0 25 0;
#X connect 106 0 27 0;
#X connect 106 0 33 0;
#X connect 106 0 35 0;
#X connect 106 0 37 0;
#X connect 106 0 39 0;
#X connect 106 0 41 0;
#X connect 107 0 29 0;
#X connect 107 0 94 0;
#X connect 107 0 76 0;
#X connect 107 0 17 0;
#X connect 107 0 19 0;
#X connect 107 0 21 0;
#X connect 107 0 23 0;
#X connect 107 0 25 0;
#X connect 107 0 27 0;
#X connect 107 0 33 0;
#X connect 107 0 35 0;
#X connect 107 0 37 0;
#X connect 107 0 39 0;
#X connect 107 0 41 0;
#X connect 108 0 35 0;
#X connect 108 0 95 0;
#X connect 108 0 76 0;
#X connect 108 0 17 0;
#X connect 108 0 19 0;
#X connect 108 0 21 0;
#X connect 108 0 23 0;
#X connect 108 0 25 0;
#X connect 108 0 27 0;
#X connect 108 0 29 0;
#X connect 108 0 31 0;
#X connect 108 0 37 0;
#X connect 108 0 39 0;
#X connect 108 0 41 0;
#X connect 109 0 33 0;
#X connect 109 0 96 0;
#X connect 109 0 41 0;
#X connect 109 0 39 0;
#X connect 109 0 37 0;
#X connect 109 0 31 0;
#X connect 109 0 29 0;
#X connect 109 0 27 0;
#X connect 109 0 25 0;
#X connect 109 0 23 0;
#X connect 109 0 21 0;
#X connect 109 0 19 0;
#X connect 109 0 17 0;
#X connect 109 0 76 0;
#X connect 110 0 39 0;
#X connect 110 0 97 0;
#X connect 110 0 76 0;
#X connect 110 0 17 0;
#X connect 110 0 19 0;
#X connect 110 0 21 0;
#X connect 110 0 23 0;
#X connect 110 0 25 0;
#X connect 110 0 27 0;
#X connect 110 0 29 0;
#X connect 110 0 31 0;
#X connect 110 0 33 0;
#X connect 110 0 35 0;
#X connect 110 0 41 0;
#X connect 111 0 37 0;
#X connect 111 0 98 0;
#X connect 111 0 41 0;
#X connect 111 0 35 0;
#X connect 111 0 33 0;
#X connect 111 0 31 0;
#X connect 111 0 29 0;
#X connect 111 0 27 0;
#X connect 111 0 25 0;
#X connect 111 0 23 0;
#X connect 111 0 21 0;
#X connect 111 0 19 0;
#X connect 111 0 17 0;
#X connect 111 0 76 0;
#X connect 112 0 76 0;
#X connect 112 0 99 0;
#X connect 112 0 39 0;
#X connect 112 0 37 0;
#X connect 112 0 35 0;
#X connect 112 0 33 0;
#X connect 112 0 31 0;
#X connect 112 0 29 0;
#X connect 112 0 27 0;
#X connect 112 0 25 0;
#X connect 112 0 23 0;
#X connect 112 0 21 0;
#X connect 112 0 19 0;
#X connect 112 0 17 0;
#X connect 113 0 41 0;
#X connect 113 0 86 0;
#X connect 113 0 17 0;
#X connect 113 0 19 0;
#X connect 113 0 21 0;
#X connect 113 0 23 0;
#X connect 113 0 25 0;
#X connect 113 0 27 0;
#X connect 113 0 29 0;
#X connect 113 0 31 0;
#X connect 113 0 33 0;
#X connect 113 0 35 0;
#X connect 113 0 37 0;
#X connect 113 0 39 0;
#X connect 126 0 128 0;
#X connect 127 0 0 0;
#X connect 128 0 127 0;
#X restore 446 675 pd vienasSkanasLokacija;
#X obj 446 651 r azimuts;
#X obj 90 770 s azimuts;
#X obj 642 650 r lokacija;
#X obj 128 799 s lokacija;
#N canvas 8 102 450 300 lastOff 0;
#X obj 149 180 outlet~;
#X obj 150 155 line~;
#X obj 150 95 t b;
#X obj 257 94 t b;
#X obj 150 64 r turnLastOff;
#X obj 257 64 r turnLastOn;
#X msg 257 121 1 500;
#X msg 150 122 0 5000;
#X connect 1 0 0 0;
#X connect 2 0 7 0;
#X connect 3 0 6 0;
#X connect 4 0 2 0;
#X connect 5 0 3 0;
#X connect 6 0 1 0;
#X connect 7 0 1 0;
#X restore 1149 272 pd lastOff;
#X obj 518 276 r~ vol56;
#X obj 728 276 r~ vol78;
#X obj 939 276 r~ vol910;
#X obj 1359 271 r~ vol1314;
#X obj 1239 271 r~ vol1112;
#X obj 308 276 r~ vol34;
#X obj 1558 766 noteout;
#X text 1392 588 note;
#X text 1497 587 channel;
#X text 1433 587 velocity;
#X obj 23 358 dac~ 1 2 15 16;
#X obj 86 306 *~;
#X obj 119 306 *~;
#X obj 168 333 s~ 16c;
#X obj 119 333 s~ 15c;
#X obj 96 260 hsl 110 15 0 1 0 1 empty empty volume 5 8 0 14 #f8fc00 #fc0400 #000000 10900 1;
#X obj 124 280 hsl 110 15 0 1 0 1 empty empty volume 5 8 0 14 #f8fc00 #fc0400 #000000 10900 1;
#X obj 1557 516 dac~ 3 4 5 6 7 8 9 10 11 12 13 14;
#N canvas 526 198 343 338 panningvoice 0;
#X obj 38 74 soundfiler;
#X obj 38 8 loadbang;
#X obj 38 108 t b;
#X obj 61 234 bng 19 250 50 0 empty empty empty 0 -10 0 12 #fcfcfc #000000 #000000;
#X obj 168 199 t b;
#X obj 37 294 outlet~;
#X obj 61 174 t b;
#X obj 61 204 delay 1;
#X msg 38 137 set pannSound;
#X msg 38 42 read -resize voice.wav pannSound;
#X obj 38 263 tabplay~ pannSound;
#X connect 0 0 2 0;
#X connect 1 0 9 0;
#X connect 2 0 8 0;
#X connect 3 0 10 0;
#X connect 4 0 3 0;
#X connect 6 0 7 0;
#X connect 7 0 3 0;
#X connect 8 0 6 0;
#X connect 8 0 10 0;
#X connect 9 0 0 0;
#X connect 10 0 5 0;
#X connect 10 1 4 0;
#X restore 1556 196 pd panningvoice;
#N canvas 398 87 671 300 panningSoundVolume 0;
#X obj 99 153 *~;
#X obj 128 153 *~;
#X obj 157 153 *~;
#X obj 186 153 *~;
#X obj 214 153 *~;
#X obj 243 153 *~;
#X obj 272 153 *~;
#X obj 301 153 *~;
#X obj 329 153 *~;
#X obj 358 153 *~;
#X obj 387 153 *~;
#X obj 416 153 *~;
#X obj 99 183 outlet~;
#X obj 129 209 outlet~;
#X obj 157 183 outlet~;
#X obj 214 183 outlet~;
#X obj 244 209 outlet~;
#X obj 272 183 outlet~;
#X obj 187 209 outlet~;
#X obj 328 183 outlet~;
#X obj 358 209 outlet~;
#X obj 386 183 outlet~;
#X obj 301 209 outlet~;
#X obj 415 209 outlet~;
#X obj 98 26 inlet~;
#X obj 218 49 r~ vol3;
#X obj 277 49 r~ vol4;
#X obj 337 49 r~ vol5;
#X obj 397 49 r~ vol6;
#X obj 457 49 r~ vol7;
#X obj 517 49 r~ vol8;
#X obj 244 74 r~ vol9;
#X obj 304 74 r~ vol10;
#X obj 370 74 r~ vol11;
#X obj 436 74 r~ vol12;
#X obj 502 74 r~ vol13;
#X obj 568 74 r~ vol14;
#X connect 0 0 12 0;
#X connect 1 0 13 0;
#X connect 2 0 14 0;
#X connect 3 0 18 0;
#X connect 4 0 15 0;
#X connect 5 0 16 0;
#X connect 6 0 17 0;
#X connect 7 0 22 0;
#X connect 8 0 19 0;
#X connect 9 0 20 0;
#X connect 10 0 21 0;
#X connect 11 0 23 0;
#X connect 24 0 0 0;
#X connect 24 0 1 0;
#X connect 24 0 2 0;
#X connect 24 0 3 0;
#X connect 24 0 4 0;
#X connect 24 0 5 0;
#X connect 24 0 6 0;
#X connect 24 0 7 0;
#X connect 24 0 8 0;
#X connect 24 0 9 0;
#X connect 24 0 10 0;
#X connect 24 0 11 0;
#X connect 25 0 0 1;
#X connect 26 0 1 1;
#X connect 27 0 2 1;
#X connect 28 0 3 1;
#X connect 29 0 4 1;
#X connect 30 0 5 1;
#X connect 31 0 6 1;
#X connect 32 0 7 1;
#X connect 33 0 8 1;
#X connect 34 0 9 1;
#X connect 35 0 10 1;
#X connect 36 0 11 1;
#X restore 1557 243 pd panningSoundVolume;
#X f 33;
#N canvas 405 463 450 300 midEno 0;
#X obj 89 49 inlet~;
#X obj 314 49 inlet~;
#N canvas 48 11 450 300 enoOff 0;
#X obj 149 180 outlet~;
#X obj 150 64 r turnEnoOff;
#X obj 150 155 line~;
#X obj 150 95 t b;
#X msg 150 122 0 5000;
#X obj 247 63 r turnEnoOn;
#X obj 247 93 t b;
#X msg 247 120 1 5000;
#X connect 1 0 3 0;
#X connect 2 0 0 0;
#X connect 3 0 4 0;
#X connect 4 0 2 0;
#X connect 5 0 6 0;
#X connect 6 0 7 0;
#X connect 7 0 2 0;
#X restore 199 49 pd enoOff;
#X obj 89 106 *~;
#X obj 315 106 *~;
#X obj 35 191 s~ enoL;
#X obj 88 167 dac~ 3 4 5 6 7 8 9 10 11 12 13 14;
#X obj 329 191 s~ enoR;
#X connect 0 0 3 0;
#X connect 1 0 4 0;
#X connect 2 0 4 1;
#X connect 2 0 3 1;
#X connect 3 0 5 0;
#X connect 3 0 6 0;
#X connect 3 0 6 2;
#X connect 3 0 6 4;
#X connect 3 0 6 6;
#X connect 3 0 6 8;
#X connect 3 0 6 10;
#X connect 4 0 6 1;
#X connect 4 0 6 3;
#X connect 4 0 6 5;
#X connect 4 0 6 7;
#X connect 4 0 6 9;
#X connect 4 0 6 11;
#X connect 4 0 7 0;
#X restore 136 358 pd midEno;
#X obj 264 356 dac~ 3 4;
#X msg 804 630 \; pd dsp \$1;
#X obj 804 606 tgl 19 0 empty empty empty 0 -10 0 12 #fcfcfc #000000 #000000 0 1;
#X obj 804 583 loadbang;
#N canvas 122 166 450 300 l1 0;
#X floatatom 74 92 4 0 127 0 - - - 0;
#X obj 64 128 t b;
#X obj 64 185 outlet;
#X obj 74 215 outlet;
#X obj 84 245 outlet;
#X msg 138 90 1;
#X obj 138 36 loadbang;
#X obj 138 64 delay 10;
#X msg 64 154 1;
#X obj 74 55 r li1;
#X connect 0 0 1 0;
#X connect 0 0 3 0;
#X connect 1 0 8 0;
#X connect 5 0 4 0;
#X connect 6 0 7 0;
#X connect 7 0 5 0;
#X connect 8 0 2 0;
#X connect 9 0 0 0;
#X restore 1454 665 pd l1;
#N canvas 122 166 450 300 l2 0;
#X floatatom 74 92 4 0 127 0 - - - 0;
#X obj 64 128 t b;
#X obj 64 185 outlet;
#X obj 74 215 outlet;
#X obj 84 245 outlet;
#X msg 138 90 1;
#X obj 138 36 loadbang;
#X obj 138 64 delay 10;
#X msg 64 154 1;
#X obj 74 55 r li2;
#X connect 0 0 1 0;
#X connect 0 0 3 0;
#X connect 1 0 8 0;
#X connect 5 0 4 0;
#X connect 6 0 7 0;
#X connect 7 0 5 0;
#X connect 8 0 2 0;
#X connect 9 0 0 0;
#X restore 1498 665 pd l2;
#N canvas 122 166 450 300 l3 0;
#X floatatom 74 92 4 0 127 0 - - - 0;
#X obj 64 128 t b;
#X obj 64 185 outlet;
#X obj 74 215 outlet;
#X obj 84 245 outlet;
#X msg 138 90 1;
#X obj 138 36 loadbang;
#X obj 138 64 delay 10;
#X msg 64 154 1;
#X obj 74 55 r li3;
#X connect 0 0 1 0;
#X connect 0 0 3 0;
#X connect 1 0 8 0;
#X connect 5 0 4 0;
#X connect 6 0 7 0;
#X connect 7 0 5 0;
#X connect 8 0 2 0;
#X connect 9 0 0 0;
#X restore 1542 665 pd l3;
#N canvas 122 166 450 300 l4 0;
#X floatatom 74 92 4 0 127 0 - - - 0;
#X obj 64 128 t b;
#X obj 64 185 outlet;
#X obj 74 215 outlet;
#X obj 84 245 outlet;
#X msg 138 90 1;
#X obj 138 36 loadbang;
#X obj 138 64 delay 10;
#X msg 64 154 1;
#X obj 74 55 r li4;
#X connect 0 0 1 0;
#X connect 0 0 3 0;
#X connect 1 0 8 0;
#X connect 5 0 4 0;
#X connect 6 0 7 0;
#X connect 7 0 5 0;
#X connect 8 0 2 0;
#X connect 9 0 0 0;
#X restore 1587 665 pd l4;
#N canvas 122 166 450 300 l5 0;
#X floatatom 74 92 4 0 127 0 - - - 0;
#X obj 64 128 t b;
#X obj 64 185 outlet;
#X obj 74 215 outlet;
#X obj 84 245 outlet;
#X msg 138 90 1;
#X obj 138 36 loadbang;
#X obj 138 64 delay 10;
#X msg 64 154 1;
#X obj 74 55 r li5;
#X connect 0 0 1 0;
#X connect 0 0 3 0;
#X connect 1 0 8 0;
#X connect 5 0 4 0;
#X connect 6 0 7 0;
#X connect 7 0 5 0;
#X connect 8 0 2 0;
#X connect 9 0 0 0;
#X restore 1631 665 pd l5;
#N canvas 122 166 450 300 l6 0;
#X floatatom 74 92 4 0 127 0 - - - 0;
#X obj 64 128 t b;
#X obj 64 185 outlet;
#X obj 74 215 outlet;
#X obj 84 245 outlet;
#X msg 138 90 1;
#X obj 138 36 loadbang;
#X obj 138 64 delay 10;
#X msg 64 154 1;
#X obj 74 55 r li6;
#X connect 0 0 1 0;
#X connect 0 0 3 0;
#X connect 1 0 8 0;
#X connect 5 0 4 0;
#X connect 6 0 7 0;
#X connect 7 0 5 0;
#X connect 8 0 2 0;
#X connect 9 0 0 0;
#X restore 1676 665 pd l6;
#X connect 1 0 24 0;
#X connect 1 0 120 0;
#X connect 2 0 1 1;
#X connect 3 0 25 0;
#X connect 3 0 120 1;
#X connect 4 0 3 1;
#X connect 7 0 1 0;
#X connect 7 0 121 0;
#X connect 7 0 130 0;
#X connect 7 1 3 0;
#X connect 7 1 122 0;
#X connect 7 1 130 1;
#X connect 44 0 46 0;
#X connect 44 0 47 0;
#X connect 44 1 46 1;
#X connect 44 1 47 1;
#X connect 44 2 46 2;
#X connect 44 2 47 2;
#X connect 44 3 46 3;
#X connect 44 3 47 3;
#X connect 44 4 46 4;
#X connect 44 4 47 4;
#X connect 44 5 46 5;
#X connect 44 5 47 5;
#X connect 44 6 46 6;
#X connect 44 6 47 6;
#X connect 44 7 46 7;
#X connect 44 7 47 7;
#X connect 44 8 46 8;
#X connect 44 8 47 8;
#X connect 44 9 46 9;
#X connect 44 9 47 9;
#X connect 44 10 46 10;
#X connect 44 10 47 10;
#X connect 44 11 46 11;
#X connect 44 11 47 11;
#X connect 48 0 27 0;
#X connect 48 1 27 1;
#X connect 48 2 28 0;
#X connect 48 3 28 1;
#X connect 48 4 29 0;
#X connect 48 5 29 1;
#X connect 48 6 30 0;
#X connect 48 7 30 1;
#X connect 48 8 31 0;
#X connect 48 9 31 1;
#X connect 48 10 32 0;
#X connect 48 11 32 1;
#X connect 48 12 33 0;
#X connect 48 13 33 1;
#X connect 48 14 34 0;
#X connect 48 15 34 1;
#X connect 48 16 35 0;
#X connect 48 17 35 1;
#X connect 48 18 36 0;
#X connect 48 19 36 1;
#X connect 48 20 37 0;
#X connect 48 21 37 1;
#X connect 48 22 38 0;
#X connect 48 23 38 1;
#X connect 48 24 39 0;
#X connect 48 25 39 1;
#X connect 48 26 40 0;
#X connect 48 27 40 1;
#X connect 48 28 41 0;
#X connect 48 29 41 1;
#X connect 48 30 42 0;
#X connect 48 31 42 1;
#X connect 49 0 51 0;
#X connect 50 0 106 0;
#X connect 51 0 50 0;
#X connect 51 1 52 0;
#X connect 51 2 53 0;
#X connect 52 0 108 0;
#X connect 54 0 49 0;
#X connect 56 0 61 0;
#X connect 56 0 131 0;
#X connect 57 0 56 1;
#X connect 58 0 62 0;
#X connect 58 0 131 1;
#X connect 59 0 58 1;
#X connect 60 0 56 0;
#X connect 60 1 58 0;
#X connect 63 0 68 0;
#X connect 63 0 70 0;
#X connect 64 0 63 1;
#X connect 65 0 69 0;
#X connect 65 0 70 1;
#X connect 66 0 65 1;
#X connect 67 0 63 0;
#X connect 67 1 65 0;
#X connect 71 0 76 0;
#X connect 71 0 78 0;
#X connect 72 0 71 1;
#X connect 73 0 77 0;
#X connect 73 0 78 1;
#X connect 74 0 73 1;
#X connect 75 0 71 0;
#X connect 75 1 73 0;
#X connect 79 0 84 0;
#X connect 79 0 86 0;
#X connect 80 0 79 1;
#X connect 81 0 85 0;
#X connect 81 0 86 1;
#X connect 82 0 81 1;
#X connect 83 0 79 0;
#X connect 83 1 81 0;
#X connect 87 0 92 0;
#X connect 87 0 94 0;
#X connect 88 0 87 1;
#X connect 89 0 93 0;
#X connect 89 0 94 1;
#X connect 90 0 89 1;
#X connect 91 0 87 0;
#X connect 91 1 89 0;
#X connect 95 0 100 0;
#X connect 95 0 102 0;
#X connect 96 0 95 1;
#X connect 97 0 101 0;
#X connect 97 0 102 1;
#X connect 98 0 97 1;
#X connect 99 0 95 0;
#X connect 99 1 97 0;
#X connect 104 1 46 0;
#X connect 104 2 46 1;
#X connect 104 3 46 2;
#X connect 104 4 46 3;
#X connect 104 5 46 4;
#X connect 104 6 46 5;
#X connect 104 7 46 6;
#X connect 104 8 46 7;
#X connect 104 9 46 8;
#X connect 104 10 46 9;
#X connect 104 11 46 10;
#X connect 104 12 46 11;
#X connect 105 0 104 0;
#X connect 107 0 44 0;
#X connect 109 0 87 1;
#X connect 109 0 89 1;
#X connect 110 0 63 1;
#X connect 110 0 65 1;
#X connect 111 0 71 1;
#X connect 111 0 73 1;
#X connect 112 0 79 1;
#X connect 112 0 81 1;
#X connect 113 0 95 1;
#X connect 113 0 97 1;
#X connect 115 0 58 1;
#X connect 115 0 56 1;
#X connect 121 0 124 0;
#X connect 121 0 120 2;
#X connect 122 0 123 0;
#X connect 122 0 120 3;
#X connect 125 0 121 1;
#X connect 126 0 122 1;
#X connect 128 0 129 0;
#X connect 129 0 127 0;
#X connect 129 1 127 1;
#X connect 129 2 127 2;
#X connect 129 3 127 3;
#X connect 129 4 127 4;
#X connect 129 5 127 5;
#X connect 129 6 127 6;
#X connect 129 7 127 7;
#X connect 129 8 127 8;
#X connect 129 9 127 9;
#X connect 129 10 127 10;
#X connect 129 11 127 11;
#X connect 133 0 132 0;
#X connect 134 0 133 0;
#X connect 135 0 116 0;
#X connect 135 1 116 1;
#X connect 135 2 116 2;
#X connect 136 0 116 0;
#X connect 136 1 116 1;
#X connect 136 2 116 2;
#X connect 137 0 116 0;
#X connect 137 1 116 1;
#X connect 137 2 116 2;
#X connect 138 0 116 0;
#X connect 138 1 116 1;
#X connect 138 2 116 2;
#X connect 139 0 116 0;
#X connect 139 1 116 1;
#X connect 139 2 116 2;
#X connect 140 0 116 0;
#X connect 140 1 116 1;
#X connect 140 2 116 2;
